<svg id="eErRfZDkbgY1" xmlns="http://www.w3.org/2000/svg" xmlns:xlink="http://www.w3.org/1999/xlink" viewBox="0 0 478 513" shape-rendering="geometricPrecision" text-rendering="geometricPrecision"><g transform="translate(-110.828781-22.997366)"><path d="M289.88,222.86h119.99c36.008,0,65.734-29.309,65.734-65.816-.28516-20.27.72266-21.73-1.0742-24.527-1.3203-2.5586-4.0469-4.293-7.1836-4.293-244.24,1.5117-237.24-3.4102-241.88,3.8008-2.2852,3.6562-.91016,5.3164-1.3203,25.023c0,36.43,29.703,65.812,65.734,65.812Z"/><path d="M467.35,111.7c.91016,0,1.8164.082031,2.6445.16406-5.9453-19.074-16.516-36.5-31.051-51.035-23.785-23.699-55.328-36.832-88.941-36.832-56.156,0-103.8,36.996-119.91,87.785c1.293-.14062-14.211-.082031,237.25-.082031Z"/><path d="M531.27,447.47c0,4.625,3.7148,8.2578,8.2578,8.2578h49.301v32.785h-49.301c-4.543,0-8.2578,3.7148-8.2578,8.2578c0,4.625,3.7148,8.2578,8.2578,8.2578h49.301v30.969h-230.57v-22.711h90.426c4.543,0,8.2578-3.7148,8.2578-8.2578v-57.559c0-4.543-3.7148-8.2578-8.2578-8.2578h-90.426v-93.977c-2.7266.16406-5.4492.33203-8.2578.33203s-5.5312-.16406-8.2578-.33203v93.977h-90.426c-4.543,0-8.2578,3.7148-8.2578,8.2578v57.559c0,4.543,3.7148,8.2578,8.2578,8.2578h90.426v22.711h-230.57v-30.969h49.219c4.625,0,8.2578-3.6328,8.2578-8.2578c0-4.543-3.6328-8.2578-8.2578-8.2578h-49.219v-32.785h49.219c4.625,0,8.2578-3.6328,8.2578-8.2578c0-4.543-3.6328-8.2578-8.2578-8.2578h-49.219v-.82422c0-35.098,22.957-64.91,54.586-75.395v30.637c0,4.543,3.6328,8.2578,8.2578,8.2578c4.543,0,8.2578-3.7148,8.2578-8.2578v-34.188c2.7266-.33203,5.5352-.49609,8.3398-.49609h26.098v34.684c0,4.543,3.7148,8.2578,8.2578,8.2578s8.2578-3.7148,8.2578-8.2578v-34.684h.99219c18.32,0,34.395-12.289,37.41-19.324l7.4336-15.855c-36.602-25.836-54.918-64.07-54.918-104.05v-13.297c4.6758,6.1328,10.27,11.879,16.598,16.598c1.6875,59.258,50.148,106.04,109.25,106.04c58.539,0,107.63-46.594,109.17-106.2c6.1914-4.5039,11.844-10.281,16.598-16.516-.21094.80078,6.8555,81.148-56.652,118.5c0,0-.16406.16406-.41406.24609c4.7578,4.9258,14.488,33.859,46.906,33.859h1.0742c1.957,22.598-5.3633,42.941,8.2578,42.941c13.633,0,6.3086-20.395,8.2578-42.941c25.059.12891,27.777-.32031,34.52.49609v34.188c0,10.969,16.516,10.891,16.516,0v-30.637c31.629,10.488,54.586,40.301,54.586,75.395v.82422h-49.301c-4.5391,0-8.2539,3.7148-8.2539,8.2578Z"/><path d="M259.61,455.75h180.78v41.031h-180.78Z"/></g></svg>
